<svg version="1.1" xmlns="http://www.w3.org/2000/svg" xmlns:xlink="http://www.w3.org/1999/xlink" width="1310" height="940"><defs><clipPath id="hFHtokDVTNfi"><path fill="none" stroke="none" d=" M 0 0 L 1310 0 L 1310 940 L 0 940 L 0 0 Z"/></clipPath></defs><g transform="scale(1,1)" clip-path="url(#hFHtokDVTNfi)"><g><rect fill="rgb(255,255,255)" stroke="none" x="0" y="0" width="1311" height="940" fill-opacity="1"/><path fill="none" stroke="rgb(192,192,192)" paint-order="fill stroke markers" d=" M 28.5 0.5 L 28.5 940.5 M 28.5 0.5 L 28.5 940.5 M 113.5 0.5 L 113.5 940.5 M 197.5 0.5 L 197.5 940.5 M 282.5 0.5 L 282.5 940.5 M 367.5 0.5 L 367.5 940.5 M 452.5 0.5 L 452.5 940.5 M 536.5 0.5 L 536.5 940.5 M 706.5 0.5 L 706.5 940.5 M 791.5 0.5 L 791.5 940.5 M 875.5 0.5 L 875.5 940.5 M 960.5 0.5 L 960.5 940.5 M 1045.5 0.5 L 1045.5 940.5 M 1130.5 0.5 L 1130.5 940.5 M 1214.5 0.5 L 1214.5 940.5 M 1299.5 0.5 L 1299.5 940.5" stroke-opacity="1" stroke-linecap="round" stroke-linejoin="round" stroke-miterlimit="10"/><path fill="none" stroke="rgb(192,192,192)" paint-order="fill stroke markers" d=" M 11.5 0.5 L 11.5 940.5 M 45.5 0.5 L 45.5 940.5 M 62.5 0.5 L 62.5 940.5 M 79.5 0.5 L 79.5 940.5 M 96.5 0.5 L 96.5 940.5 M 130.5 0.5 L 130.5 940.5 M 146.5 0.5 L 146.5 940.5 M 163.5 0.5 L 163.5 940.5 M 180.5 0.5 L 180.5 940.5 M 214.5 0.5 L 214.5 940.5 M 231.5 0.5 L 231.5 940.5 M 248.5 0.5 L 248.5 940.5 M 265.5 0.5 L 265.5 940.5 M 299.5 0.5 L 299.5 940.5 M 316.5 0.5 L 316.5 940.5 M 333.5 0.5 L 333.5 940.5 M 350.5 0.5 L 350.5 940.5 M 384.5 0.5 L 384.5 940.5 M 401.5 0.5 L 401.5 940.5 M 418.5 0.5 L 418.5 940.5 M 435.5 0.5 L 435.5 940.5 M 469.5 0.5 L 469.5 940.5 M 485.5 0.5 L 485.5 940.5 M 502.5 0.5 L 502.5 940.5 M 519.5 0.5 L 519.5 940.5 M 553.5 0.5 L 553.5 940.5 M 570.5 0.5 L 570.5 940.5 M 587.5 0.5 L 587.5 940.5 M 604.5 0.5 L 604.5 940.5 M 638.5 0.5 L 638.5 940.5 M 655.5 0.5 L 655.5 940.5 M 672.5 0.5 L 672.5 940.5 M 689.5 0.5 L 689.5 940.5 M 723.5 0.5 L 723.5 940.5 M 740.5 0.5 L 740.5 940.5 M 757.5 0.5 L 757.5 940.5 M 774.5 0.5 L 774.5 940.5 M 808.5 0.5 L 808.5 940.5 M 825.5 0.5 L 825.5 940.5 M 841.5 0.5 L 841.5 940.5 M 858.5 0.5 L 858.5 940.5 M 892.5 0.5 L 892.5 940.5 M 909.5 0.5 L 909.5 940.5 M 926.5 0.5 L 926.5 940.5 M 943.5 0.5 L 943.5 940.5 M 977.5 0.5 L 977.5 940.5 M 994.5 0.5 L 994.5 940.5 M 1011.5 0.5 L 1011.5 940.5 M 1028.5 0.5 L 1028.5 940.5 M 1062.5 0.5 L 1062.5 940.5 M 1079.5 0.5 L 1079.5 940.5 M 1096.5 0.5 L 1096.5 940.5 M 1113.5 0.5 L 1113.5 940.5 M 1147.5 0.5 L 1147.5 940.5 M 1164.5 0.5 L 1164.5 940.5 M 1180.5 0.5 L 1180.5 940.5 M 1197.5 0.5 L 1197.5 940.5 M 1231.5 0.5 L 1231.5 940.5 M 1248.5 0.5 L 1248.5 940.5 M 1265.5 0.5 L 1265.5 940.5 M 1282.5 0.5 L 1282.5 940.5" stroke-opacity="0.23529411764705882" stroke-linecap="round" stroke-linejoin="round" stroke-miterlimit="10"/><path fill="none" stroke="rgb(192,192,192)" paint-order="fill stroke markers" d=" M 0.5 43.5 L 1310.5 43.5 M 0.5 43.5 L 1310.5 43.5 M 0.5 128.5 L 1310.5 128.5 M 0.5 213.5 L 1310.5 213.5 M 0.5 297.5 L 1310.5 297.5 M 0.5 382.5 L 1310.5 382.5 M 0.5 552.5 L 1310.5 552.5 M 0.5 636.5 L 1310.5 636.5 M 0.5 721.5 L 1310.5 721.5 M 0.5 806.5 L 1310.5 806.5 M 0.5 891.5 L 1310.5 891.5" stroke-opacity="1" stroke-linecap="round" stroke-linejoin="round" stroke-miterlimit="10"/><path fill="none" stroke="rgb(192,192,192)" paint-order="fill stroke markers" d=" M 0.5 9.5 L 1310.5 9.5 M 0.5 9.5 L 1310.5 9.5 M 0.5 26.5 L 1310.5 26.5 M 0.5 60.5 L 1310.5 60.5 M 0.5 77.5 L 1310.5 77.5 M 0.5 94.5 L 1310.5 94.5 M 0.5 111.5 L 1310.5 111.5 M 0.5 145.5 L 1310.5 145.5 M 0.5 162.5 L 1310.5 162.5 M 0.5 179.5 L 1310.5 179.5 M 0.5 196.5 L 1310.5 196.5 M 0.5 230.5 L 1310.5 230.5 M 0.5 247.5 L 1310.5 247.5 M 0.5 264.5 L 1310.5 264.5 M 0.5 281.5 L 1310.5 281.5 M 0.5 314.5 L 1310.5 314.5 M 0.5 331.5 L 1310.5 331.5 M 0.5 348.5 L 1310.5 348.5 M 0.5 365.5 L 1310.5 365.5 M 0.5 399.5 L 1310.5 399.5 M 0.5 416.5 L 1310.5 416.5 M 0.5 433.5 L 1310.5 433.5 M 0.5 450.5 L 1310.5 450.5 M 0.5 484.5 L 1310.5 484.5 M 0.5 501.5 L 1310.5 501.5 M 0.5 518.5 L 1310.5 518.5 M 0.5 535.5 L 1310.5 535.5 M 0.5 569.5 L 1310.5 569.5 M 0.5 586.5 L 1310.5 586.5 M 0.5 603.5 L 1310.5 603.5 M 0.5 620.5 L 1310.5 620.5 M 0.5 653.5 L 1310.5 653.5 M 0.5 670.5 L 1310.5 670.5 M 0.5 687.5 L 1310.5 687.5 M 0.5 704.5 L 1310.5 704.5 M 0.5 738.5 L 1310.5 738.5 M 0.5 755.5 L 1310.5 755.5 M 0.5 772.5 L 1310.5 772.5 M 0.5 789.5 L 1310.5 789.5 M 0.5 823.5 L 1310.5 823.5 M 0.5 840.5 L 1310.5 840.5 M 0.5 857.5 L 1310.5 857.5 M 0.5 874.5 L 1310.5 874.5 M 0.5 908.5 L 1310.5 908.5 M 0.5 925.5 L 1310.5 925.5" stroke-opacity="0.23529411764705882" stroke-linecap="round" stroke-linejoin="round" stroke-miterlimit="10"/><path fill="none" stroke="rgb(37,37,37)" paint-order="fill stroke markers" d=" M 621.5 2.5 L 621.5 940.5" stroke-opacity="1" stroke-miterlimit="10"/><path fill="none" stroke="rgb(37,37,37)" paint-order="fill stroke markers" d=" M 621.5 1.5 L 617.5 5.5" stroke-opacity="1" stroke-miterlimit="10"/><path fill="none" stroke="rgb(37,37,37)" paint-order="fill stroke markers" d=" M 621.5 1.5 L 625.5 5.5" stroke-opacity="1" stroke-miterlimit="10"/><path fill="none" stroke="rgb(37,37,37)" paint-order="fill stroke markers" d=" M 0.5 467.5 L 1308.5 467.5" stroke-opacity="1" stroke-miterlimit="10"/><path fill="none" stroke="rgb(37,37,37)" paint-order="fill stroke markers" d=" M 1309.5 467.5 L 1305.5 463.5" stroke-opacity="1" stroke-miterlimit="10"/><path fill="none" stroke="rgb(37,37,37)" paint-order="fill stroke markers" d=" M 1309.5 467.5 L 1305.5 471.5" stroke-opacity="1" stroke-miterlimit="10"/><text fill="rgb(37,37,37)" stroke="none" font-family="geogebra-sans-serif, sans-serif" font-size="12px" font-style="normal" font-weight="normal" text-decoration="normal" x="17" y="483" text-anchor="start" dominant-baseline="alphabetic" fill-opacity="1">–0.7</text><text fill="none" stroke="rgb(255,255,255)" font-family="geogebra-sans-serif, sans-serif" font-size="12px" font-style="normal" font-weight="normal" text-decoration="normal" x="17" y="483" text-anchor="start" dominant-baseline="alphabetic" stroke-opacity="1" stroke-linejoin="bevel" stroke-miterlimit="10" stroke-width="3">–0.7</text><text fill="rgb(37,37,37)" stroke="none" font-family="geogebra-sans-serif, sans-serif" font-size="12px" font-style="normal" font-weight="normal" text-decoration="normal" x="17" y="483" text-anchor="start" dominant-baseline="alphabetic" fill-opacity="1">–0.7</text><text fill="rgb(37,37,37)" stroke="none" font-family="geogebra-sans-serif, sans-serif" font-size="12px" font-style="normal" font-weight="normal" text-decoration="normal" x="102" y="483" text-anchor="start" dominant-baseline="alphabetic" fill-opacity="1">–0.6</text><text fill="none" stroke="rgb(255,255,255)" font-family="geogebra-sans-serif, sans-serif" font-size="12px" font-style="normal" font-weight="normal" text-decoration="normal" x="102" y="483" text-anchor="start" dominant-baseline="alphabetic" stroke-opacity="1" stroke-linejoin="bevel" stroke-miterlimit="10" stroke-width="3">–0.6</text><text fill="rgb(37,37,37)" stroke="none" font-family="geogebra-sans-serif, sans-serif" font-size="12px" font-style="normal" font-weight="normal" text-decoration="normal" x="102" y="483" text-anchor="start" dominant-baseline="alphabetic" fill-opacity="1">–0.6</text><text fill="rgb(37,37,37)" stroke="none" font-family="geogebra-sans-serif, sans-serif" font-size="12px" font-style="normal" font-weight="normal" text-decoration="normal" x="186" y="483" text-anchor="start" dominant-baseline="alphabetic" fill-opacity="1">–0.5</text><text fill="none" stroke="rgb(255,255,255)" font-family="geogebra-sans-serif, sans-serif" font-size="12px" font-style="normal" font-weight="normal" text-decoration="normal" x="186" y="483" text-anchor="start" dominant-baseline="alphabetic" stroke-opacity="1" stroke-linejoin="bevel" stroke-miterlimit="10" stroke-width="3">–0.5</text><text fill="rgb(37,37,37)" stroke="none" font-family="geogebra-sans-serif, sans-serif" font-size="12px" font-style="normal" font-weight="normal" text-decoration="normal" x="186" y="483" text-anchor="start" dominant-baseline="alphabetic" fill-opacity="1">–0.5</text><text fill="rgb(37,37,37)" stroke="none" font-family="geogebra-sans-serif, sans-serif" font-size="12px" font-style="normal" font-weight="normal" text-decoration="normal" x="271" y="483" text-anchor="start" dominant-baseline="alphabetic" fill-opacity="1">–0.4</text><text fill="none" stroke="rgb(255,255,255)" font-family="geogebra-sans-serif, sans-serif" font-size="12px" font-style="normal" font-weight="normal" text-decoration="normal" x="271" y="483" text-anchor="start" dominant-baseline="alphabetic" stroke-opacity="1" stroke-linejoin="bevel" stroke-miterlimit="10" stroke-width="3">–0.4</text><text fill="rgb(37,37,37)" stroke="none" font-family="geogebra-sans-serif, sans-serif" font-size="12px" font-style="normal" font-weight="normal" text-decoration="normal" x="271" y="483" text-anchor="start" dominant-baseline="alphabetic" fill-opacity="1">–0.4</text><text fill="rgb(37,37,37)" stroke="none" font-family="geogebra-sans-serif, sans-serif" font-size="12px" font-style="normal" font-weight="normal" text-decoration="normal" x="356" y="483" text-anchor="start" dominant-baseline="alphabetic" fill-opacity="1">–0.3</text><text fill="none" stroke="rgb(255,255,255)" font-family="geogebra-sans-serif, sans-serif" font-size="12px" font-style="normal" font-weight="normal" text-decoration="normal" x="356" y="483" text-anchor="start" dominant-baseline="alphabetic" stroke-opacity="1" stroke-linejoin="bevel" stroke-miterlimit="10" stroke-width="3">–0.3</text><text fill="rgb(37,37,37)" stroke="none" font-family="geogebra-sans-serif, sans-serif" font-size="12px" font-style="normal" font-weight="normal" text-decoration="normal" x="356" y="483" text-anchor="start" dominant-baseline="alphabetic" fill-opacity="1">–0.3</text><text fill="rgb(37,37,37)" stroke="none" font-family="geogebra-sans-serif, sans-serif" font-size="12px" font-style="normal" font-weight="normal" text-decoration="normal" x="441" y="483" text-anchor="start" dominant-baseline="alphabetic" fill-opacity="1">–0.2</text><text fill="none" stroke="rgb(255,255,255)" font-family="geogebra-sans-serif, sans-serif" font-size="12px" font-style="normal" font-weight="normal" text-decoration="normal" x="441" y="483" text-anchor="start" dominant-baseline="alphabetic" stroke-opacity="1" stroke-linejoin="bevel" stroke-miterlimit="10" stroke-width="3">–0.2</text><text fill="rgb(37,37,37)" stroke="none" font-family="geogebra-sans-serif, sans-serif" font-size="12px" font-style="normal" font-weight="normal" text-decoration="normal" x="441" y="483" text-anchor="start" dominant-baseline="alphabetic" fill-opacity="1">–0.2</text><text fill="rgb(37,37,37)" stroke="none" font-family="geogebra-sans-serif, sans-serif" font-size="12px" font-style="normal" font-weight="normal" text-decoration="normal" x="525" y="483" text-anchor="start" dominant-baseline="alphabetic" fill-opacity="1">–0.1</text><text fill="none" stroke="rgb(255,255,255)" font-family="geogebra-sans-serif, sans-serif" font-size="12px" font-style="normal" font-weight="normal" text-decoration="normal" x="525" y="483" text-anchor="start" dominant-baseline="alphabetic" stroke-opacity="1" stroke-linejoin="bevel" stroke-miterlimit="10" stroke-width="3">–0.1</text><text fill="rgb(37,37,37)" stroke="none" font-family="geogebra-sans-serif, sans-serif" font-size="12px" font-style="normal" font-weight="normal" text-decoration="normal" x="525" y="483" text-anchor="start" dominant-baseline="alphabetic" fill-opacity="1">–0.1</text><text fill="rgb(37,37,37)" stroke="none" font-family="geogebra-sans-serif, sans-serif" font-size="12px" font-style="normal" font-weight="normal" text-decoration="normal" x="698" y="483" text-anchor="start" dominant-baseline="alphabetic" fill-opacity="1">0.1</text><text fill="none" stroke="rgb(255,255,255)" font-family="geogebra-sans-serif, sans-serif" font-size="12px" font-style="normal" font-weight="normal" text-decoration="normal" x="698" y="483" text-anchor="start" dominant-baseline="alphabetic" stroke-opacity="1" stroke-linejoin="bevel" stroke-miterlimit="10" stroke-width="3">0.1</text><text fill="rgb(37,37,37)" stroke="none" font-family="geogebra-sans-serif, sans-serif" font-size="12px" font-style="normal" font-weight="normal" text-decoration="normal" x="698" y="483" text-anchor="start" dominant-baseline="alphabetic" fill-opacity="1">0.1</text><text fill="rgb(37,37,37)" stroke="none" font-family="geogebra-sans-serif, sans-serif" font-size="12px" font-style="normal" font-weight="normal" text-decoration="normal" x="783" y="483" text-anchor="start" dominant-baseline="alphabetic" fill-opacity="1">0.2</text><text fill="none" stroke="rgb(255,255,255)" font-family="geogebra-sans-serif, sans-serif" font-size="12px" font-style="normal" font-weight="normal" text-decoration="normal" x="783" y="483" text-anchor="start" dominant-baseline="alphabetic" stroke-opacity="1" stroke-linejoin="bevel" stroke-miterlimit="10" stroke-width="3">0.2</text><text fill="rgb(37,37,37)" stroke="none" font-family="geogebra-sans-serif, sans-serif" font-size="12px" font-style="normal" font-weight="normal" text-decoration="normal" x="783" y="483" text-anchor="start" dominant-baseline="alphabetic" fill-opacity="1">0.2</text><text fill="rgb(37,37,37)" stroke="none" font-family="geogebra-sans-serif, sans-serif" font-size="12px" font-style="normal" font-weight="normal" text-decoration="normal" x="867" y="483" text-anchor="start" dominant-baseline="alphabetic" fill-opacity="1">0.3</text><text fill="none" stroke="rgb(255,255,255)" font-family="geogebra-sans-serif, sans-serif" font-size="12px" font-style="normal" font-weight="normal" text-decoration="normal" x="867" y="483" text-anchor="start" dominant-baseline="alphabetic" stroke-opacity="1" stroke-linejoin="bevel" stroke-miterlimit="10" stroke-width="3">0.3</text><text fill="rgb(37,37,37)" stroke="none" font-family="geogebra-sans-serif, sans-serif" font-size="12px" font-style="normal" font-weight="normal" text-decoration="normal" x="867" y="483" text-anchor="start" dominant-baseline="alphabetic" fill-opacity="1">0.3</text><text fill="rgb(37,37,37)" stroke="none" font-family="geogebra-sans-serif, sans-serif" font-size="12px" font-style="normal" font-weight="normal" text-decoration="normal" x="952" y="483" text-anchor="start" dominant-baseline="alphabetic" fill-opacity="1">0.4</text><text fill="none" stroke="rgb(255,255,255)" font-family="geogebra-sans-serif, sans-serif" font-size="12px" font-style="normal" font-weight="normal" text-decoration="normal" x="952" y="483" text-anchor="start" dominant-baseline="alphabetic" stroke-opacity="1" stroke-linejoin="bevel" stroke-miterlimit="10" stroke-width="3">0.4</text><text fill="rgb(37,37,37)" stroke="none" font-family="geogebra-sans-serif, sans-serif" font-size="12px" font-style="normal" font-weight="normal" text-decoration="normal" x="952" y="483" text-anchor="start" dominant-baseline="alphabetic" fill-opacity="1">0.4</text><text fill="rgb(37,37,37)" stroke="none" font-family="geogebra-sans-serif, sans-serif" font-size="12px" font-style="normal" font-weight="normal" text-decoration="normal" x="1037" y="483" text-anchor="start" dominant-baseline="alphabetic" fill-opacity="1">0.5</text><text fill="none" stroke="rgb(255,255,255)" font-family="geogebra-sans-serif, sans-serif" font-size="12px" font-style="normal" font-weight="normal" text-decoration="normal" x="1037" y="483" text-anchor="start" dominant-baseline="alphabetic" stroke-opacity="1" stroke-linejoin="bevel" stroke-miterlimit="10" stroke-width="3">0.5</text><text fill="rgb(37,37,37)" stroke="none" font-family="geogebra-sans-serif, sans-serif" font-size="12px" font-style="normal" font-weight="normal" text-decoration="normal" x="1037" y="483" text-anchor="start" dominant-baseline="alphabetic" fill-opacity="1">0.5</text><text fill="rgb(37,37,37)" stroke="none" font-family="geogebra-sans-serif, sans-serif" font-size="12px" font-style="normal" font-weight="normal" text-decoration="normal" x="1122" y="483" text-anchor="start" dominant-baseline="alphabetic" fill-opacity="1">0.6</text><text fill="none" stroke="rgb(255,255,255)" font-family="geogebra-sans-serif, sans-serif" font-size="12px" font-style="normal" font-weight="normal" text-decoration="normal" x="1122" y="483" text-anchor="start" dominant-baseline="alphabetic" stroke-opacity="1" stroke-linejoin="bevel" stroke-miterlimit="10" stroke-width="3">0.6</text><text fill="rgb(37,37,37)" stroke="none" font-family="geogebra-sans-serif, sans-serif" font-size="12px" font-style="normal" font-weight="normal" text-decoration="normal" x="1122" y="483" text-anchor="start" dominant-baseline="alphabetic" fill-opacity="1">0.6</text><text fill="rgb(37,37,37)" stroke="none" font-family="geogebra-sans-serif, sans-serif" font-size="12px" font-style="normal" font-weight="normal" text-decoration="normal" x="1206" y="483" text-anchor="start" dominant-baseline="alphabetic" fill-opacity="1">0.7</text><text fill="none" stroke="rgb(255,255,255)" font-family="geogebra-sans-serif, sans-serif" font-size="12px" font-style="normal" font-weight="normal" text-decoration="normal" x="1206" y="483" text-anchor="start" dominant-baseline="alphabetic" stroke-opacity="1" stroke-linejoin="bevel" stroke-miterlimit="10" stroke-width="3">0.7</text><text fill="rgb(37,37,37)" stroke="none" font-family="geogebra-sans-serif, sans-serif" font-size="12px" font-style="normal" font-weight="normal" text-decoration="normal" x="1206" y="483" text-anchor="start" dominant-baseline="alphabetic" fill-opacity="1">0.7</text><text fill="rgb(37,37,37)" stroke="none" font-family="geogebra-sans-serif, sans-serif" font-size="12px" font-style="normal" font-weight="normal" text-decoration="normal" x="1291" y="483" text-anchor="start" dominant-baseline="alphabetic" fill-opacity="1">0.8</text><text fill="none" stroke="rgb(255,255,255)" font-family="geogebra-sans-serif, sans-serif" font-size="12px" font-style="normal" font-weight="normal" text-decoration="normal" x="1291" y="483" text-anchor="start" dominant-baseline="alphabetic" stroke-opacity="1" stroke-linejoin="bevel" stroke-miterlimit="10" stroke-width="3">0.8</text><text fill="rgb(37,37,37)" stroke="none" font-family="geogebra-sans-serif, sans-serif" font-size="12px" font-style="normal" font-weight="normal" text-decoration="normal" x="1291" y="483" text-anchor="start" dominant-baseline="alphabetic" fill-opacity="1">0.8</text><text fill="rgb(37,37,37)" stroke="none" font-family="geogebra-sans-serif, sans-serif" font-size="12px" font-style="normal" font-weight="normal" text-decoration="normal" x="591" y="896" text-anchor="start" dominant-baseline="alphabetic" fill-opacity="1">–0.5</text><text fill="none" stroke="rgb(255,255,255)" font-family="geogebra-sans-serif, sans-serif" font-size="12px" font-style="normal" font-weight="normal" text-decoration="normal" x="591" y="896" text-anchor="start" dominant-baseline="alphabetic" stroke-opacity="1" stroke-linejoin="bevel" stroke-miterlimit="10" stroke-width="3">–0.5</text><text fill="rgb(37,37,37)" stroke="none" font-family="geogebra-sans-serif, sans-serif" font-size="12px" font-style="normal" font-weight="normal" text-decoration="normal" x="591" y="896" text-anchor="start" dominant-baseline="alphabetic" fill-opacity="1">–0.5</text><text fill="rgb(37,37,37)" stroke="none" font-family="geogebra-sans-serif, sans-serif" font-size="12px" font-style="normal" font-weight="normal" text-decoration="normal" x="591" y="811" text-anchor="start" dominant-baseline="alphabetic" fill-opacity="1">–0.4</text><text fill="none" stroke="rgb(255,255,255)" font-family="geogebra-sans-serif, sans-serif" font-size="12px" font-style="normal" font-weight="normal" text-decoration="normal" x="591" y="811" text-anchor="start" dominant-baseline="alphabetic" stroke-opacity="1" stroke-linejoin="bevel" stroke-miterlimit="10" stroke-width="3">–0.4</text><text fill="rgb(37,37,37)" stroke="none" font-family="geogebra-sans-serif, sans-serif" font-size="12px" font-style="normal" font-weight="normal" text-decoration="normal" x="591" y="811" text-anchor="start" dominant-baseline="alphabetic" fill-opacity="1">–0.4</text><text fill="rgb(37,37,37)" stroke="none" font-family="geogebra-sans-serif, sans-serif" font-size="12px" font-style="normal" font-weight="normal" text-decoration="normal" x="591" y="726" text-anchor="start" dominant-baseline="alphabetic" fill-opacity="1">–0.3</text><text fill="none" stroke="rgb(255,255,255)" font-family="geogebra-sans-serif, sans-serif" font-size="12px" font-style="normal" font-weight="normal" text-decoration="normal" x="591" y="726" text-anchor="start" dominant-baseline="alphabetic" stroke-opacity="1" stroke-linejoin="bevel" stroke-miterlimit="10" stroke-width="3">–0.3</text><text fill="rgb(37,37,37)" stroke="none" font-family="geogebra-sans-serif, sans-serif" font-size="12px" font-style="normal" font-weight="normal" text-decoration="normal" x="591" y="726" text-anchor="start" dominant-baseline="alphabetic" fill-opacity="1">–0.3</text><text fill="rgb(37,37,37)" stroke="none" font-family="geogebra-sans-serif, sans-serif" font-size="12px" font-style="normal" font-weight="normal" text-decoration="normal" x="591" y="641" text-anchor="start" dominant-baseline="alphabetic" fill-opacity="1">–0.2</text><text fill="none" stroke="rgb(255,255,255)" font-family="geogebra-sans-serif, sans-serif" font-size="12px" font-style="normal" font-weight="normal" text-decoration="normal" x="591" y="641" text-anchor="start" dominant-baseline="alphabetic" stroke-opacity="1" stroke-linejoin="bevel" stroke-miterlimit="10" stroke-width="3">–0.2</text><text fill="rgb(37,37,37)" stroke="none" font-family="geogebra-sans-serif, sans-serif" font-size="12px" font-style="normal" font-weight="normal" text-decoration="normal" x="591" y="641" text-anchor="start" dominant-baseline="alphabetic" fill-opacity="1">–0.2</text><text fill="rgb(37,37,37)" stroke="none" font-family="geogebra-sans-serif, sans-serif" font-size="12px" font-style="normal" font-weight="normal" text-decoration="normal" x="591" y="557" text-anchor="start" dominant-baseline="alphabetic" fill-opacity="1">–0.1</text><text fill="none" stroke="rgb(255,255,255)" font-family="geogebra-sans-serif, sans-serif" font-size="12px" font-style="normal" font-weight="normal" text-decoration="normal" x="591" y="557" text-anchor="start" dominant-baseline="alphabetic" stroke-opacity="1" stroke-linejoin="bevel" stroke-miterlimit="10" stroke-width="3">–0.1</text><text fill="rgb(37,37,37)" stroke="none" font-family="geogebra-sans-serif, sans-serif" font-size="12px" font-style="normal" font-weight="normal" text-decoration="normal" x="591" y="557" text-anchor="start" dominant-baseline="alphabetic" fill-opacity="1">–0.1</text><text fill="rgb(37,37,37)" stroke="none" font-family="geogebra-sans-serif, sans-serif" font-size="12px" font-style="normal" font-weight="normal" text-decoration="normal" x="597" y="387" text-anchor="start" dominant-baseline="alphabetic" fill-opacity="1">0.1</text><text fill="none" stroke="rgb(255,255,255)" font-family="geogebra-sans-serif, sans-serif" font-size="12px" font-style="normal" font-weight="normal" text-decoration="normal" x="597" y="387" text-anchor="start" dominant-baseline="alphabetic" stroke-opacity="1" stroke-linejoin="bevel" stroke-miterlimit="10" stroke-width="3">0.1</text><text fill="rgb(37,37,37)" stroke="none" font-family="geogebra-sans-serif, sans-serif" font-size="12px" font-style="normal" font-weight="normal" text-decoration="normal" x="597" y="387" text-anchor="start" dominant-baseline="alphabetic" fill-opacity="1">0.1</text><text fill="rgb(37,37,37)" stroke="none" font-family="geogebra-sans-serif, sans-serif" font-size="12px" font-style="normal" font-weight="normal" text-decoration="normal" x="597" y="302" text-anchor="start" dominant-baseline="alphabetic" fill-opacity="1">0.2</text><text fill="none" stroke="rgb(255,255,255)" font-family="geogebra-sans-serif, sans-serif" font-size="12px" font-style="normal" font-weight="normal" text-decoration="normal" x="597" y="302" text-anchor="start" dominant-baseline="alphabetic" stroke-opacity="1" stroke-linejoin="bevel" stroke-miterlimit="10" stroke-width="3">0.2</text><text fill="rgb(37,37,37)" stroke="none" font-family="geogebra-sans-serif, sans-serif" font-size="12px" font-style="normal" font-weight="normal" text-decoration="normal" x="597" y="302" text-anchor="start" dominant-baseline="alphabetic" fill-opacity="1">0.2</text><text fill="rgb(37,37,37)" stroke="none" font-family="geogebra-sans-serif, sans-serif" font-size="12px" font-style="normal" font-weight="normal" text-decoration="normal" x="597" y="218" text-anchor="start" dominant-baseline="alphabetic" fill-opacity="1">0.3</text><text fill="none" stroke="rgb(255,255,255)" font-family="geogebra-sans-serif, sans-serif" font-size="12px" font-style="normal" font-weight="normal" text-decoration="normal" x="597" y="218" text-anchor="start" dominant-baseline="alphabetic" stroke-opacity="1" stroke-linejoin="bevel" stroke-miterlimit="10" stroke-width="3">0.3</text><text fill="rgb(37,37,37)" stroke="none" font-family="geogebra-sans-serif, sans-serif" font-size="12px" font-style="normal" font-weight="normal" text-decoration="normal" x="597" y="218" text-anchor="start" dominant-baseline="alphabetic" fill-opacity="1">0.3</text><text fill="rgb(37,37,37)" stroke="none" font-family="geogebra-sans-serif, sans-serif" font-size="12px" font-style="normal" font-weight="normal" text-decoration="normal" x="597" y="133" text-anchor="start" dominant-baseline="alphabetic" fill-opacity="1">0.4</text><text fill="none" stroke="rgb(255,255,255)" font-family="geogebra-sans-serif, sans-serif" font-size="12px" font-style="normal" font-weight="normal" text-decoration="normal" x="597" y="133" text-anchor="start" dominant-baseline="alphabetic" stroke-opacity="1" stroke-linejoin="bevel" stroke-miterlimit="10" stroke-width="3">0.4</text><text fill="rgb(37,37,37)" stroke="none" font-family="geogebra-sans-serif, sans-serif" font-size="12px" font-style="normal" font-weight="normal" text-decoration="normal" x="597" y="133" text-anchor="start" dominant-baseline="alphabetic" fill-opacity="1">0.4</text><text fill="rgb(37,37,37)" stroke="none" font-family="geogebra-sans-serif, sans-serif" font-size="12px" font-style="normal" font-weight="normal" text-decoration="normal" x="597" y="48" text-anchor="start" dominant-baseline="alphabetic" fill-opacity="1">0.5</text><text fill="none" stroke="rgb(255,255,255)" font-family="geogebra-sans-serif, sans-serif" font-size="12px" font-style="normal" font-weight="normal" text-decoration="normal" x="597" y="48" text-anchor="start" dominant-baseline="alphabetic" stroke-opacity="1" stroke-linejoin="bevel" stroke-miterlimit="10" stroke-width="3">0.5</text><text fill="rgb(37,37,37)" stroke="none" font-family="geogebra-sans-serif, sans-serif" font-size="12px" font-style="normal" font-weight="normal" text-decoration="normal" x="597" y="48" text-anchor="start" dominant-baseline="alphabetic" fill-opacity="1">0.5</text><text fill="rgb(37,37,37)" stroke="none" font-family="geogebra-sans-serif, sans-serif" font-size="12px" font-style="normal" font-weight="normal" text-decoration="normal" x="607" y="483" text-anchor="start" dominant-baseline="alphabetic" fill-opacity="1">0</text><text fill="none" stroke="rgb(255,255,255)" font-family="geogebra-sans-serif, sans-serif" font-size="12px" font-style="normal" font-weight="normal" text-decoration="normal" x="607" y="483" text-anchor="start" dominant-baseline="alphabetic" stroke-opacity="1" stroke-linejoin="bevel" stroke-miterlimit="10" stroke-width="3">0</text><text fill="rgb(37,37,37)" stroke="none" font-family="geogebra-sans-serif, sans-serif" font-size="12px" font-style="normal" font-weight="normal" text-decoration="normal" x="607" y="483" text-anchor="start" dominant-baseline="alphabetic" fill-opacity="1">0</text><path fill="none" stroke="rgb(0,0,0)" paint-order="fill stroke markers" d=" M 1045.3619815714342 467.47373100017103 C 1045.3619815714342 701.5122230929369 855.6362973684222 891.2379072959491 621.5978052756562 891.2379072959491 C 387.55931318289026 891.2379072959491 197.83362897987826 701.5122230929369 197.83362897987826 467.47373100017103 C 197.83362897987826 233.43523890740508 387.55931318289026 43.70955470439304 621.5978052756562 43.70955470439304 C 855.6362973684222 43.70955470439304 1045.3619815714342 233.43523890740508 1045.3619815714342 467.47373100017103 Z" stroke-opacity="0.6980392156862745" stroke-linecap="round" stroke-linejoin="round" stroke-miterlimit="10" stroke-width="2.5"/><text fill="rgb(0,0,0)" stroke="none" font-family="geogebra-sans-serif, sans-serif" font-size="16px" font-style="normal" font-weight="normal" text-decoration="normal" x="409" y="127" text-anchor="start" dominant-baseline="alphabetic" fill-opacity="1">c</text><text fill="none" stroke="rgb(255,255,255)" font-family="geogebra-sans-serif, sans-serif" font-size="16px" font-style="normal" font-weight="normal" text-decoration="normal" x="409" y="127" text-anchor="start" dominant-baseline="alphabetic" stroke-opacity="1" stroke-linejoin="bevel" stroke-miterlimit="10" stroke-width="3">c</text><text fill="rgb(0,0,0)" stroke="none" font-family="geogebra-sans-serif, sans-serif" font-size="16px" font-style="normal" font-weight="normal" text-decoration="normal" x="409" y="127" text-anchor="start" dominant-baseline="alphabetic" fill-opacity="1">c</text><path fill="rgb(97,97,97)" stroke="none" paint-order="stroke fill markers" d=" M 626.5978052756562 467.47373100017103 C 626.5978052756562 470.235154749325 624.3592290248102 472.47373100017103 621.5978052756562 472.47373100017103 C 618.8363815265022 472.47373100017103 616.5978052756562 470.235154749325 616.5978052756562 467.47373100017103 C 616.5978052756562 464.7123072510171 618.8363815265022 462.47373100017103 621.5978052756562 462.47373100017103 C 624.3592290248102 462.47373100017103 626.5978052756562 464.7123072510171 626.5978052756562 467.47373100017103 Z" fill-opacity="1"/><path fill="none" stroke="rgb(0,0,0)" paint-order="fill stroke markers" d=" M 626.5978052756562 467.47373100017103 C 626.5978052756562 470.235154749325 624.3592290248102 472.47373100017103 621.5978052756562 472.47373100017103 C 618.8363815265022 472.47373100017103 616.5978052756562 470.235154749325 616.5978052756562 467.47373100017103 C 616.5978052756562 464.7123072510171 618.8363815265022 462.47373100017103 621.5978052756562 462.47373100017103 C 624.3592290248102 462.47373100017103 626.5978052756562 464.7123072510171 626.5978052756562 467.47373100017103 Z" stroke-opacity="1" stroke-linecap="round" stroke-linejoin="round" stroke-miterlimit="10"/><text fill="rgb(97,97,97)" stroke="none" font-family="geogebra-sans-serif, sans-serif" font-size="16px" font-style="normal" font-weight="normal" text-decoration="normal" x="626" y="457" text-anchor="start" dominant-baseline="alphabetic" fill-opacity="1">A</text><text fill="none" stroke="rgb(255,255,255)" font-family="geogebra-sans-serif, sans-serif" font-size="16px" font-style="normal" font-weight="normal" text-decoration="normal" x="626" y="457" text-anchor="start" dominant-baseline="alphabetic" stroke-opacity="1" stroke-linejoin="bevel" stroke-miterlimit="10" stroke-width="3">A</text><text fill="rgb(97,97,97)" stroke="none" font-family="geogebra-sans-serif, sans-serif" font-size="16px" font-style="normal" font-weight="normal" text-decoration="normal" x="626" y="457" text-anchor="start" dominant-baseline="alphabetic" fill-opacity="1">A</text><path fill="rgb(21,101,192)" stroke="none" paint-order="stroke fill markers" d=" M 202.83362897987826 467.47373100017103 C 202.83362897987826 470.235154749325 200.59505272903223 472.47373100017103 197.83362897987826 472.47373100017103 C 195.07220523072428 472.47373100017103 192.83362897987826 470.235154749325 192.83362897987826 467.47373100017103 C 192.83362897987826 464.7123072510171 195.07220523072428 462.47373100017103 197.83362897987826 462.47373100017103 C 200.59505272903223 462.47373100017103 202.83362897987826 464.7123072510171 202.83362897987826 467.47373100017103 Z" fill-opacity="1"/><path fill="none" stroke="rgb(0,0,0)" paint-order="fill stroke markers" d=" M 202.83362897987826 467.47373100017103 C 202.83362897987826 470.235154749325 200.59505272903223 472.47373100017103 197.83362897987826 472.47373100017103 C 195.07220523072428 472.47373100017103 192.83362897987826 470.235154749325 192.83362897987826 467.47373100017103 C 192.83362897987826 464.7123072510171 195.07220523072428 462.47373100017103 197.83362897987826 462.47373100017103 C 200.59505272903223 462.47373100017103 202.83362897987826 464.7123072510171 202.83362897987826 467.47373100017103 Z" stroke-opacity="1" stroke-linecap="round" stroke-linejoin="round" stroke-miterlimit="10"/><text fill="rgb(21,101,192)" stroke="none" font-family="geogebra-sans-serif, sans-serif" font-size="16px" font-style="normal" font-weight="normal" text-decoration="normal" x="202" y="457" text-anchor="start" dominant-baseline="alphabetic" fill-opacity="1">B</text><text fill="none" stroke="rgb(255,255,255)" font-family="geogebra-sans-serif, sans-serif" font-size="16px" font-style="normal" font-weight="normal" text-decoration="normal" x="202" y="457" text-anchor="start" dominant-baseline="alphabetic" stroke-opacity="1" stroke-linejoin="bevel" stroke-miterlimit="10" stroke-width="3">B</text><text fill="rgb(21,101,192)" stroke="none" font-family="geogebra-sans-serif, sans-serif" font-size="16px" font-style="normal" font-weight="normal" text-decoration="normal" x="202" y="457" text-anchor="start" dominant-baseline="alphabetic" fill-opacity="1">B</text></g></g></svg>